# xmcd
#
# Track frame offsets:
#	150
#	12568
#	35019
#	51560
#	63687
#	71789
#	87336
#	111297
#	126750
#	145841
#	160881
#	180460
#
# Disc length: 2560 seconds
#
# Revision: 0
# Processed by: cddbd v1.5.1PL0 Copyright (c) Steve Scherf et al.
# Submitted via: dBpowerAMP V4.0
#
DISCID=b509fe0c
DTITLE=Buddy Green - Plays well with Friends
DYEAR=2002
DGENRE=Blues
TTITLE0=Sally Goodn'
TTITLE1=Working on a Building
TTITLE2=Deep River Blues
TTITLE3=Cluck ol' Hen
TTITLE4=Kinfolk in Carloina
TTITLE5=All my Loving
TTITLE6=Cryin' Holly
TTITLE7=The little Begger Man
TTITLE8=Walking Blues
TTITLE9=One Way Avenue
TTITLE10=Rock In a Weary Land
TTITLE11=Highway Headling South
EXTD=
EXTT0=
EXTT1=
EXTT2=
EXTT3=
EXTT4=
EXTT5=
EXTT6=
EXTT7=
EXTT8=
EXTT9=
EXTT10=
EXTT11=
PLAYORDER=
